<svg xmlns="http://www.w3.org/2000/svg" width="23.999" height="23.999" viewBox="0 0 23.999 23.999">
  <g id="uczulenia_nowa" transform="translate(922 1595)" fill="#fff">
    <path d="M -910.6734619140625 -1572.020629882813 C -913.3583984375 -1572.181640625 -915.8600463867188 -1573.304077148438 -917.7780151367188 -1575.222045898438 C -919.7169799804688 -1577.16015625 -920.8428344726563 -1579.695678710938 -920.9844360351563 -1582.41455078125 C -920.6906127929688 -1576.843994140625 -916.2326049804688 -1572.358032226563 -910.6734619140625 -1572.020629882813 Z M -907.817138671875 -1572.2158203125 C -906.2037353515625 -1572.539916992188 -904.6864624023438 -1573.225341796875 -903.3482055664063 -1574.244262695313 L -903.0735473632813 -1574.453369140625 C -904.4598999023438 -1573.325927734375 -906.0807495117188 -1572.563598632813 -907.817138671875 -1572.2158203125 Z M -901.9576416015625 -1575.495239257813 L -901.7392578125 -1575.743530273438 C -900.072998046875 -1577.638061523438 -899.1128540039063 -1580.038696289063 -899.0093383789063 -1582.546875 C -899.1156616210938 -1579.904663085938 -900.1504516601563 -1577.428588867188 -901.9576416015625 -1575.495239257813 Z M -899.0203857421875 -1583.674194335938 C -899.3594970703125 -1589.260009765625 -903.8864135742188 -1593.7333984375 -909.4942016601563 -1593.988525390625 C -906.7465209960938 -1593.864990234375 -904.1802978515625 -1592.735961914063 -902.2216796875 -1590.778076171875 C -900.3040161132813 -1588.8603515625 -899.1815795898438 -1586.35888671875 -899.0203857421875 -1583.674194335938 Z M -920.8477172851563 -1584.8388671875 C -920.535400390625 -1586.706420898438 -919.7481689453125 -1588.451049804688 -918.5457153320313 -1589.92822265625 L -918.7564086914063 -1589.651489257813 C -919.8471069335938 -1588.218505859375 -920.5556640625 -1586.580444335938 -920.8477172851563 -1584.8388671875 Z M -914.0601196289063 -1586.559692382813 L -917.2536010742188 -1589.7529296875 L -918.0245971679688 -1590.52392578125 L -918.0244750976563 -1590.524047851563 L -917.3034057617188 -1589.802856445313 L -914.0601196289063 -1586.559692382813 Z M -917.4986572265625 -1591.048217773438 C -915.5363159179688 -1592.879760742188 -913.0156860351563 -1593.916259765625 -910.3305053710938 -1593.994995117188 C -912.8831176757813 -1593.918212890625 -915.331298828125 -1592.954223632813 -917.2567138671875 -1591.260864257813 L -917.4986572265625 -1591.048217773438 Z" stroke="none"/>
    <path d="M -909.9999389648438 -1571.00048828125 C -913.2057495117188 -1571.00048828125 -916.2189331054688 -1572.248779296875 -918.485107421875 -1574.514892578125 C -920.752197265625 -1576.781127929688 -921.9996337890625 -1579.795288085938 -921.9996337890625 -1583.000122070313 C -921.9996337890625 -1586.205078125 -920.752197265625 -1589.219116210938 -918.485107421875 -1591.4853515625 C -916.2189331054688 -1593.751586914063 -913.2057495117188 -1594.999877929688 -909.9999389648438 -1594.999877929688 C -906.7950439453125 -1594.999877929688 -903.7817993164063 -1593.751586914063 -901.5147094726563 -1591.4853515625 C -899.24853515625 -1589.219116210938 -898.000244140625 -1586.205078125 -898.000244140625 -1583.000122070313 C -898.000244140625 -1579.795288085938 -899.24853515625 -1576.781127929688 -901.5147094726563 -1574.514892578125 C -903.7817993164063 -1572.248779296875 -906.7950439453125 -1571.00048828125 -909.9999389648438 -1571.00048828125 Z M -917.960693359375 -1589.045776367188 C -919.2396240234375 -1587.365600585938 -919.9998168945313 -1585.269897460938 -919.9998168945313 -1583.000122070313 C -919.9998168945313 -1577.48583984375 -915.5142211914063 -1573.000244140625 -909.9999389648438 -1573.000244140625 C -907.7301635742188 -1573.000244140625 -905.63427734375 -1573.760620117188 -903.9539794921875 -1575.039916992188 L -917.960693359375 -1589.045776367188 Z M -909.9999389648438 -1593 C -912.5252075195313 -1593 -914.8345336914063 -1592.059448242188 -916.5963134765625 -1590.510009765625 L -902.4901733398438 -1576.403930664063 C -900.940673828125 -1578.165649414063 -900 -1580.474853515625 -900 -1583.000122070313 C -900 -1588.514404296875 -904.4865112304688 -1593 -909.9999389648438 -1593 Z" stroke="none" fill="#cb7c95"/>
  </g>
</svg>
