<svg xmlns="http://www.w3.org/2000/svg" width="23.999" height="23.999" viewBox="0 0 23.999 23.999">
  <g id="szpital_nowa" transform="translate(922 1595)" fill="#fff">
    <path d="M -910.6734619140625 -1572.020629882813 C -913.3583984375 -1572.181640625 -915.8600463867188 -1573.304077148438 -917.7780151367188 -1575.222045898438 C -919.7169799804688 -1577.16015625 -920.8428344726563 -1579.695678710938 -920.9844360351563 -1582.41455078125 C -920.6906127929688 -1576.843994140625 -916.2326049804688 -1572.358032226563 -910.6734619140625 -1572.020629882813 Z M -909.309814453125 -1572.021606445313 C -903.7874145507813 -1572.365112304688 -899.3557739257813 -1576.8017578125 -899.0203857421875 -1582.326293945313 C -899.1815795898438 -1579.6416015625 -900.3040161132813 -1577.139892578125 -902.2218017578125 -1575.222045898438 C -904.136474609375 -1573.308227539063 -906.6319580078125 -1572.186401367188 -909.309814453125 -1572.021606445313 Z M -909.0001220703125 -1576 L -911.0006103515625 -1576 L -911.0006103515625 -1581.000366210938 L -911.0006103515625 -1582.000366210938 L -912.0006103515625 -1582.000366210938 L -917 -1582.000366210938 L -917 -1584.000854492188 L -912.0006103515625 -1584.000854492188 L -911.0006103515625 -1584.000854492188 L -911.0006103515625 -1585.000854492188 L -911.0006103515625 -1590.000244140625 L -909.0001220703125 -1590.000244140625 L -909.0001220703125 -1585.000854492188 L -909.0001220703125 -1584.000854492188 L -908.0001220703125 -1584.000854492188 L -903.000732421875 -1584.000854492188 L -903.000732421875 -1582.000366210938 L -908.0001220703125 -1582.000366210938 L -909.0001220703125 -1582.000366210938 L -909.0001220703125 -1581.000366210938 L -909.0001220703125 -1576 Z M -920.9844360351563 -1583.585693359375 C -920.8428344726563 -1586.304565429688 -919.7169799804688 -1588.839965820313 -917.7781372070313 -1590.778076171875 C -915.8176879882813 -1592.738525390625 -913.2476806640625 -1593.867797851563 -910.495361328125 -1593.989013671875 C -916.137451171875 -1593.737915039063 -920.6874389648438 -1589.215942382813 -920.9844360351563 -1583.585693359375 Z M -899.0203857421875 -1583.674194335938 C -899.3594970703125 -1589.260009765625 -903.8864135742188 -1593.7333984375 -909.4942016601563 -1593.988525390625 C -906.7465209960938 -1593.864990234375 -904.1802978515625 -1592.735961914063 -902.2216796875 -1590.778076171875 C -900.3040161132813 -1588.8603515625 -899.1815795898438 -1586.35888671875 -899.0203857421875 -1583.674194335938 Z" stroke="none"/>
    <path d="M -910.0001220703125 -1577 L -910.0001220703125 -1581.000366210938 L -910.0001220703125 -1583.000366210938 L -908.0001220703125 -1583.000366210938 L -904.000732421875 -1583.000366210938 L -904.000732421875 -1583.000854492188 L -908.0001220703125 -1583.000854492188 L -910.0001220703125 -1583.000854492188 L -910.0001220703125 -1585.000854492188 L -910.0001220703125 -1589.000244140625 L -910.0006103515625 -1589.000244140625 L -910.0006103515625 -1585.000854492188 L -910.0006103515625 -1583.000854492188 L -912.0006103515625 -1583.000854492188 L -916 -1583.000854492188 L -916 -1583.000366210938 L -912.0006103515625 -1583.000366210938 L -910.0006103515625 -1583.000366210938 L -910.0006103515625 -1581.000366210938 L -910.0006103515625 -1577 L -910.0001220703125 -1577 M -909.9999389648438 -1571.00048828125 C -913.2057495117188 -1571.00048828125 -916.2189331054688 -1572.248779296875 -918.485107421875 -1574.514892578125 C -920.752197265625 -1576.781127929688 -921.9996337890625 -1579.795288085938 -921.9996337890625 -1583.000122070313 C -921.9996337890625 -1586.205932617188 -920.752197265625 -1589.219116210938 -918.485107421875 -1591.4853515625 C -916.2189331054688 -1593.751586914063 -913.2057495117188 -1594.999877929688 -909.9999389648438 -1594.999877929688 C -906.7950439453125 -1594.999877929688 -903.7817993164063 -1593.751586914063 -901.5147094726563 -1591.4853515625 C -899.24853515625 -1589.219116210938 -898.000244140625 -1586.205932617188 -898.000244140625 -1583.000122070313 C -898.000244140625 -1579.795288085938 -899.24853515625 -1576.781127929688 -901.5147094726563 -1574.514892578125 C -903.7817993164063 -1572.248779296875 -906.7950439453125 -1571.00048828125 -909.9999389648438 -1571.00048828125 Z M -909.9999389648438 -1593 C -915.5142211914063 -1593 -919.9998168945313 -1588.514404296875 -919.9998168945313 -1583.000122070313 C -919.9998168945313 -1577.486694335938 -915.5142211914063 -1573.000244140625 -909.9999389648438 -1573.000244140625 C -904.4865112304688 -1573.000244140625 -900 -1577.486694335938 -900 -1583.000122070313 C -900 -1588.514404296875 -904.4865112304688 -1593 -909.9999389648438 -1593 Z M -908.0001220703125 -1575 L -912.0006103515625 -1575 L -912.0006103515625 -1581.000366210938 L -918 -1581.000366210938 L -918 -1585.000854492188 L -912.0006103515625 -1585.000854492188 L -912.0006103515625 -1591.000244140625 L -908.0001220703125 -1591.000244140625 L -908.0001220703125 -1585.000854492188 L -902.000732421875 -1585.000854492188 L -902.000732421875 -1581.000366210938 L -908.0001220703125 -1581.000366210938 L -908.0001220703125 -1575 Z" stroke="none" fill="#cb7c95"/>
  </g>
</svg>
