<svg id="leki_nowy" xmlns="http://www.w3.org/2000/svg" width="14.827" height="20" viewBox="0 0 14.827 20">
  <g id="Subtraction_12" data-name="Subtraction 12" transform="translate(921.998 1596)" fill="#fff">
    <path d="M -908.1641235351563 -1576.499877929688 L -908.179931640625 -1576.499877929688 L -908.1340942382813 -1576.861328125 C -908.1304321289063 -1576.890014648438 -908.0224609375 -1577.75634765625 -907.9093627929688 -1579.054321289063 C -907.99072265625 -1578.06298828125 -908.08203125 -1577.182250976563 -908.1641235351563 -1576.499877929688 Z" stroke="none"/>
    <path d="M -907.722900390625 -1575.999877929688 L -907.7237548828125 -1575.999877929688 L -921.5739135742188 -1575.999877929688 L -921.5765380859375 -1576.020751953125 C -921.67138671875 -1577.165771484375 -922.4771118164063 -1587.296020507813 -921.5739135742188 -1590.374755859375 C -921.078369140625 -1592.064208984375 -919.8126831054688 -1593.231811523438 -918.838134765625 -1593.913818359375 C -917.78662109375 -1594.649658203125 -916.8310546875 -1594.996704101563 -916.8218383789063 -1594.999877929688 L -912.2211303710938 -1594.999877929688 C -912.1937255859375 -1594.992065429688 -909.4874877929688 -1594.17822265625 -907.9227294921875 -1590.374755859375 C -906.3651123046875 -1586.588623046875 -907.708984375 -1576.106201171875 -907.7227783203125 -1576.000732421875 L -907.722900390625 -1575.999877929688 Z M -916.5978393554688 -1594.1484375 C -916.631103515625 -1594.136108398438 -919.92919921875 -1592.880981445313 -920.7576293945313 -1589.955322265625 C -921.58935546875 -1587.021728515625 -920.7660522460938 -1577.024780273438 -920.7576293945313 -1576.924194335938 L -908.630126953125 -1576.924194335938 C -908.6183471679688 -1577.01708984375 -907.4389038085938 -1586.515869140625 -908.8056030273438 -1589.955322265625 C -910.1731567382813 -1593.399047851563 -912.5455932617188 -1594.141357421875 -912.5693969726563 -1594.1484375 L -916.5978393554688 -1594.1484375 Z" stroke="none" fill="#cb7c95"/>
  </g>
  <g id="Rectangle_22" data-name="Rectangle 22" transform="translate(0.423 6)" fill="#fff" stroke="#cb7c95" stroke-width="1">
    <rect width="14" height="11" rx="1" stroke="none"/>
    <rect x="0.5" y="0.5" width="13" height="10" rx="0.5" fill="none"/>
  </g>
  <path id="Union_14" data-name="Union 14" d="M-918.647-1591.646h0v0h0v0Z" transform="translate(926.057 1603.032)" fill="rgba(0,0,0,0)" stroke="#cb7c95" stroke-width="2"/>
  <g id="Rectangle_42" data-name="Rectangle 42" transform="translate(2.423)" fill="#fff" stroke="#cb7c95" stroke-width="1">
    <rect width="10" height="2" rx="1" stroke="none"/>
    <rect x="0.5" y="0.5" width="9" height="1" rx="0.5" fill="none"/>
  </g>
</svg>
