<svg xmlns="http://www.w3.org/2000/svg" width="23" height="21.45" viewBox="0 0 23 21.45">
  <g id="menu_nowy" transform="translate(468 1587)" fill="#fff">
    <path d="M -456.4467163085938 -1566.050048828125 C -459.9166870117188 -1566.050048828125 -463.4388732910156 -1566.641967773438 -465.5134582519531 -1567.065063476563 C -463.3702697753906 -1566.654418945313 -459.8845825195313 -1566.111083984375 -456.4467163085938 -1566.111083984375 C -453.0440368652344 -1566.111083984375 -449.6351318359375 -1566.643310546875 -447.5172729492188 -1567.052490234375 C -449.5686645507813 -1566.630493164063 -453.0138244628906 -1566.050048828125 -456.4467163085938 -1566.050048828125 Z M -465.4731750488281 -1585.493286132813 C -463.392578125 -1585.915649414063 -459.8920288085938 -1586.499755859375 -456.4467163085938 -1586.499755859375 C -453.0109252929688 -1586.499755859375 -449.5668640136719 -1585.919799804688 -447.5164489746094 -1585.498046875 C -449.63427734375 -1585.9072265625 -453.043701171875 -1586.439575195313 -456.4467163085938 -1586.439575195313 C -459.8630981445313 -1586.439575195313 -463.3267517089844 -1585.902954101563 -465.4731750488281 -1585.493286132813 Z" stroke="none"/>
    <path d="M -456.4467163085938 -1565.550048828125 C -461.9466247558594 -1565.550048828125 -467.4996032714844 -1566.999877929688 -467.4996032714844 -1566.999877929688 C -467.7759094238281 -1566.999877929688 -468 -1567.223999023438 -468 -1567.500366210938 C -468 -1567.775756835938 -467.7759094238281 -1567.999877929688 -467.4996032714844 -1567.999877929688 C -467.4996032714844 -1567.999877929688 -461.9466247558594 -1566.611083984375 -456.4467163085938 -1566.611083984375 C -450.9468078613281 -1566.611083984375 -445.5 -1567.999877929688 -445.5 -1567.999877929688 C -445.2237243652344 -1567.999877929688 -444.9996032714844 -1567.775756835938 -444.9996032714844 -1567.500366210938 C -444.9996032714844 -1567.223999023438 -445.2237243652344 -1566.999877929688 -445.5 -1566.999877929688 C -445.5 -1566.999877929688 -450.9468078613281 -1565.550048828125 -456.4467163085938 -1565.550048828125 Z M -445.5 -1575.999877929688 L -467.4996032714844 -1575.999877929688 C -467.7759094238281 -1575.999877929688 -468 -1576.223999023438 -468 -1576.500366210938 C -468 -1576.775756835938 -467.7759094238281 -1576.999877929688 -467.4996032714844 -1576.999877929688 L -445.5 -1576.999877929688 C -445.2237243652344 -1576.999877929688 -444.9996032714844 -1576.775756835938 -444.9996032714844 -1576.500366210938 C -444.9996032714844 -1576.223999023438 -445.2237243652344 -1575.999877929688 -445.5 -1575.999877929688 Z M -445.5 -1584.55078125 C -445.5 -1584.55078125 -450.9468078613281 -1585.939575195313 -456.4467163085938 -1585.939575195313 C -461.9466247558594 -1585.939575195313 -467.4996032714844 -1584.55078125 -467.4996032714844 -1584.55078125 C -467.7759094238281 -1584.55078125 -468 -1584.774047851563 -468 -1585.05029296875 C -468 -1585.32666015625 -467.7759094238281 -1585.55078125 -467.4996032714844 -1585.55078125 C -467.4996032714844 -1585.55078125 -461.9466247558594 -1586.999755859375 -456.4467163085938 -1586.999755859375 C -450.9468078613281 -1586.999755859375 -445.5 -1585.55078125 -445.5 -1585.55078125 C -445.2237243652344 -1585.55078125 -444.9996032714844 -1585.32666015625 -444.9996032714844 -1585.05029296875 C -444.9996032714844 -1584.774047851563 -445.2237243652344 -1584.55078125 -445.5 -1584.55078125 Z" stroke="none" fill="#dfd6f5"/>
  </g>
</svg>
