<svg id="notatka_nowa_2" xmlns="http://www.w3.org/2000/svg" width="47" height="59" viewBox="0 0 47 59">
  <g id="notatka_nowa_calosc">
    <g id="Path_42" data-name="Path 42" fill="#cb7c95" style="mix-blend-mode: darken;isolation: isolate">
      <path d="M 22 43.5 C 19.09729957580566 43.5 16.28169059753418 42.93161010742188 13.63138961791992 41.81063079833984 C 11.07124042510986 40.72777938842773 8.771889686584473 39.1774787902832 6.797210216522217 37.20280075073242 C 4.822519779205322 35.22811126708984 3.272219896316528 32.92876052856445 2.189369916915894 30.36861991882324 C 1.068390011787415 27.71830940246582 0.5 24.90270042419434 0.5 22 C 0.5 19.09729957580566 1.068390011787415 16.28169059753418 2.189369916915894 13.63138961791992 C 3.272219896316528 11.07124042510986 4.822519779205322 8.771889686584473 6.797210216522217 6.797210216522217 C 8.771889686584473 4.822519779205322 11.07124042510986 3.272219896316528 13.63138961791992 2.189369916915894 C 16.28169059753418 1.068390011787415 19.09729957580566 0.5 22 0.5 C 24.90270042419434 0.5 27.71830940246582 1.068390011787415 30.36861991882324 2.189369916915894 C 32.92876052856445 3.272219896316528 35.22811126708984 4.822519779205322 37.20280075073242 6.797210216522217 C 39.1774787902832 8.771889686584473 40.72777938842773 11.07124042510986 41.81063079833984 13.63138961791992 C 42.93161010742188 16.28169059753418 43.5 19.09729957580566 43.5 22 C 43.5 24.90270042419434 42.93161010742188 27.71830940246582 41.81063079833984 30.36861991882324 C 40.72777938842773 32.92876052856445 39.1774787902832 35.22811126708984 37.20280075073242 37.20280075073242 C 35.22811126708984 39.1774787902832 32.92876052856445 40.72777938842773 30.36861991882324 41.81063079833984 C 27.71830940246582 42.93161010742188 24.90270042419434 43.5 22 43.5 Z" stroke="none"/>
      <path d="M 22 1 C 19.16457939147949 1 16.41449928283691 1.555099487304688 13.8261604309082 2.649871826171875 C 11.32561111450195 3.707511901855469 9.079681396484375 5.221828460693359 7.150760650634766 7.150760650634766 C 5.221828460693359 9.079681396484375 3.707511901855469 11.32561111450195 2.649871826171875 13.8261604309082 C 1.555099487304688 16.41449928283691 1 19.16457939147949 1 22 C 1 24.83542060852051 1.555099487304688 27.58550071716309 2.649871826171875 30.1738395690918 C 3.707511901855469 32.67438125610352 5.221828460693359 34.92031097412109 7.150760650634766 36.84923934936523 C 9.079681396484375 38.77817153930664 11.32561111450195 40.29248046875 13.8261604309082 41.35012817382813 C 16.41449928283691 42.44490051269531 19.16457939147949 43 22 43 C 24.83542060852051 43 27.58550071716309 42.44490051269531 30.1738395690918 41.35012817382813 C 32.67438125610352 40.29248046875 34.92031097412109 38.77817153930664 36.84923934936523 36.84923934936523 C 38.77817153930664 34.92031097412109 40.29248046875 32.67438125610352 41.35012817382813 30.1738395690918 C 42.44490051269531 27.58550071716309 43 24.83542060852051 43 22 C 43 19.16457939147949 42.44490051269531 16.41449928283691 41.35012817382813 13.8261604309082 C 40.29248046875 11.32561111450195 38.77817153930664 9.079681396484375 36.84923934936523 7.150760650634766 C 34.92031097412109 5.221828460693359 32.67438125610352 3.707511901855469 30.1738395690918 2.649871826171875 C 27.58550071716309 1.555099487304688 24.83542060852051 1 22 1 M 22 0 C 34.15026092529297 0 44 9.8497314453125 44 22 C 44 34.15026092529297 34.15026092529297 44 22 44 C 9.8497314453125 44 0 34.15026092529297 0 22 C 0 9.8497314453125 9.8497314453125 0 22 0 Z" stroke="none" fill="#cb7c95"/>
    </g>
    <path id="notatka_nowa" d="M-1349.939-753.793a.381.381,0,0,1-.224-.055c-.339-.246.709-3.448,1.036-4.245l.061-.162a14.742,14.742,0,0,1,1.006-2.279l4.633,3.491c-.224.158-.471.3-.756.459a13.966,13.966,0,0,0-1.206.745c-.167.085-.4.21-.668.355l-.006,0C-1347.234-754.849-1349.194-753.793-1349.939-753.793Zm7.814-4.773h0l-4.792-3.612,10.459-14.395a3.011,3.011,0,0,1,2.429-1.236,2.978,2.978,0,0,1,1.761.573,2.98,2.98,0,0,1,1.2,1.957,2.981,2.981,0,0,1-.536,2.233l-10.52,14.479Z" transform="translate(1363.307 786.712)" fill="#fff"/>
  </g>
  <text id="Notatka" transform="translate(1 42)" fill="#cb7c95" font-size="12" font-family="OpenSans-Light, Open Sans" font-weight="300"><tspan x="0" y="13">Notatka</tspan></text>
</svg>
