<svg id="parametry_nowe_calosc" xmlns="http://www.w3.org/2000/svg" width="44" height="44" viewBox="0 0 44 44">
  <g id="Path_42" data-name="Path 42" fill="#ce8ca1">
    <path d="M 22 43.5 C 19.09729957580566 43.5 16.28169059753418 42.93161010742188 13.63138961791992 41.81063079833984 C 11.07124042510986 40.72777938842773 8.771889686584473 39.1774787902832 6.797210216522217 37.20280075073242 C 4.822519779205322 35.22811126708984 3.272219896316528 32.92876052856445 2.189369916915894 30.36861991882324 C 1.068390011787415 27.71830940246582 0.5 24.90270042419434 0.5 22 C 0.5 19.09729957580566 1.068390011787415 16.28169059753418 2.189369916915894 13.63138961791992 C 3.272219896316528 11.07124042510986 4.822519779205322 8.771889686584473 6.797210216522217 6.797210216522217 C 8.771889686584473 4.822519779205322 11.07124042510986 3.272219896316528 13.63138961791992 2.189369916915894 C 16.28169059753418 1.068390011787415 19.09729957580566 0.5 22 0.5 C 24.90270042419434 0.5 27.71830940246582 1.068390011787415 30.36861991882324 2.189369916915894 C 32.92876052856445 3.272219896316528 35.22811126708984 4.822519779205322 37.20280075073242 6.797210216522217 C 39.1774787902832 8.771889686584473 40.72777938842773 11.07124042510986 41.81063079833984 13.63138961791992 C 42.93161010742188 16.28169059753418 43.5 19.09729957580566 43.5 22 C 43.5 24.90270042419434 42.93161010742188 27.71830940246582 41.81063079833984 30.36861991882324 C 40.72777938842773 32.92876052856445 39.1774787902832 35.22811126708984 37.20280075073242 37.20280075073242 C 35.22811126708984 39.1774787902832 32.92876052856445 40.72777938842773 30.36861991882324 41.81063079833984 C 27.71830940246582 42.93161010742188 24.90270042419434 43.5 22 43.5 Z" stroke="none"/>
    <path d="M 22 1 C 19.16457939147949 1 16.41449928283691 1.555099487304688 13.8261604309082 2.649871826171875 C 11.32561111450195 3.707511901855469 9.079681396484375 5.221828460693359 7.150760650634766 7.150760650634766 C 5.221828460693359 9.079681396484375 3.707511901855469 11.32561111450195 2.649871826171875 13.8261604309082 C 1.555099487304688 16.41449928283691 1 19.16457939147949 1 22 C 1 24.83542060852051 1.555099487304688 27.58550071716309 2.649871826171875 30.1738395690918 C 3.707511901855469 32.67438125610352 5.221828460693359 34.92031097412109 7.150760650634766 36.84923934936523 C 9.079681396484375 38.77817153930664 11.32561111450195 40.29248046875 13.8261604309082 41.35012817382813 C 16.41449928283691 42.44490051269531 19.16457939147949 43 22 43 C 24.83542060852051 43 27.58550071716309 42.44490051269531 30.1738395690918 41.35012817382813 C 32.67438125610352 40.29248046875 34.92031097412109 38.77817153930664 36.84923934936523 36.84923934936523 C 38.77817153930664 34.92031097412109 40.29248046875 32.67438125610352 41.35012817382813 30.1738395690918 C 42.44490051269531 27.58550071716309 43 24.83542060852051 43 22 C 43 19.16457939147949 42.44490051269531 16.41449928283691 41.35012817382813 13.8261604309082 C 40.29248046875 11.32561111450195 38.77817153930664 9.079681396484375 36.84923934936523 7.150760650634766 C 34.92031097412109 5.221828460693359 32.67438125610352 3.707511901855469 30.1738395690918 2.649871826171875 C 27.58550071716309 1.555099487304688 24.83542060852051 1 22 1 M 22 0 C 34.15026092529297 0 44 9.8497314453125 44 22 C 44 34.15026092529297 34.15026092529297 44 22 44 C 9.8497314453125 44 0 34.15026092529297 0 22 C 0 9.8497314453125 9.8497314453125 0 22 0 Z" stroke="none" fill="#ce8ca1"/>
  </g>
  <path id="parametry_nowe" d="M-1564.768-1376.4h0v-.013c-.33-.143-2.124-1.037-4.938-4.463-.5-.6-.971-1.165-1.43-1.708l-.014-.016a30.664,30.664,0,0,1-4.115-5.665l6.185-.054h.15c.193,0,.369-.254.457-.5l1.827-3.165,3.122,8.734a.527.527,0,0,0,.487.352.463.463,0,0,0,.163-.029.483.483,0,0,0,.287-.285.175.175,0,0,0,.017-.025l2.861-5.076,5.479.048a31.662,31.662,0,0,1-4.574,6.242l0,.005c-.32.371-.651.754-.987,1.148a19.15,19.15,0,0,1-4.938,4.459v.016h0a.06.06,0,0,1-.018-.006Zm1.841-8.145v0l-3.128-8.632a.5.5,0,0,0-.249-.4.5.5,0,0,0-.249-.067.5.5,0,0,0-.434.25l-2.236,3.874-6.639-.014a19.036,19.036,0,0,1-.687-1.916c-1.334-4.428.581-7.843,2.367-8.854a6.121,6.121,0,0,1,2.923-.688,5.2,5.2,0,0,1,3.881,1.505c2.215,2.375,2.576,4.174,2.629,4.837.054-.665.421-2.469,2.629-4.837a5.2,5.2,0,0,1,3.881-1.505,6.116,6.116,0,0,1,2.922.688c1.787,1.011,3.7,4.426,2.367,8.854a19.454,19.454,0,0,1-.688,1.917l-6.2.013c-.195,0-.546.356-.73.674-.024.033-.048.07-.077.118l-2.255,4.145-.018.031-.005.009Z" transform="translate(1587.304 1411.621)" fill="#fff"/>
</svg>
