<svg id="telefon_nowy_calosc" xmlns="http://www.w3.org/2000/svg" width="44" height="44" viewBox="0 0 44 44">
  <g id="Path_42" data-name="Path 42" fill="#ce8ca1">
    <path d="M 22 43.5 C 19.09729957580566 43.5 16.28169059753418 42.93161010742188 13.63138961791992 41.81063079833984 C 11.07124042510986 40.72777938842773 8.771889686584473 39.1774787902832 6.797210216522217 37.20280075073242 C 4.822519779205322 35.22811126708984 3.272219896316528 32.92876052856445 2.189369916915894 30.36861991882324 C 1.068390011787415 27.71830940246582 0.5 24.90270042419434 0.5 22 C 0.5 19.09729957580566 1.068390011787415 16.28169059753418 2.189369916915894 13.63138961791992 C 3.272219896316528 11.07124042510986 4.822519779205322 8.771889686584473 6.797210216522217 6.797210216522217 C 8.771889686584473 4.822519779205322 11.07124042510986 3.272219896316528 13.63138961791992 2.189369916915894 C 16.28169059753418 1.068390011787415 19.09729957580566 0.5 22 0.5 C 24.90270042419434 0.5 27.71830940246582 1.068390011787415 30.36861991882324 2.189369916915894 C 32.92876052856445 3.272219896316528 35.22811126708984 4.822519779205322 37.20280075073242 6.797210216522217 C 39.1774787902832 8.771889686584473 40.72777938842773 11.07124042510986 41.81063079833984 13.63138961791992 C 42.93161010742188 16.28169059753418 43.5 19.09729957580566 43.5 22 C 43.5 24.90270042419434 42.93161010742188 27.71830940246582 41.81063079833984 30.36861991882324 C 40.72777938842773 32.92876052856445 39.1774787902832 35.22811126708984 37.20280075073242 37.20280075073242 C 35.22811126708984 39.1774787902832 32.92876052856445 40.72777938842773 30.36861991882324 41.81063079833984 C 27.71830940246582 42.93161010742188 24.90270042419434 43.5 22 43.5 Z" stroke="none"/>
    <path d="M 22 1 C 19.16457939147949 1 16.41449928283691 1.555099487304688 13.8261604309082 2.649871826171875 C 11.32561111450195 3.707511901855469 9.079681396484375 5.221828460693359 7.150760650634766 7.150760650634766 C 5.221828460693359 9.079681396484375 3.707511901855469 11.32561111450195 2.649871826171875 13.8261604309082 C 1.555099487304688 16.41449928283691 1 19.16457939147949 1 22 C 1 24.83542060852051 1.555099487304688 27.58550071716309 2.649871826171875 30.1738395690918 C 3.707511901855469 32.67438125610352 5.221828460693359 34.92031097412109 7.150760650634766 36.84923934936523 C 9.079681396484375 38.77817153930664 11.32561111450195 40.29248046875 13.8261604309082 41.35012817382813 C 16.41449928283691 42.44490051269531 19.16457939147949 43 22 43 C 24.83542060852051 43 27.58550071716309 42.44490051269531 30.1738395690918 41.35012817382813 C 32.67438125610352 40.29248046875 34.92031097412109 38.77817153930664 36.84923934936523 36.84923934936523 C 38.77817153930664 34.92031097412109 40.29248046875 32.67438125610352 41.35012817382813 30.1738395690918 C 42.44490051269531 27.58550071716309 43 24.83542060852051 43 22 C 43 19.16457939147949 42.44490051269531 16.41449928283691 41.35012817382813 13.8261604309082 C 40.29248046875 11.32561111450195 38.77817153930664 9.079681396484375 36.84923934936523 7.150760650634766 C 34.92031097412109 5.221828460693359 32.67438125610352 3.707511901855469 30.1738395690918 2.649871826171875 C 27.58550071716309 1.555099487304688 24.83542060852051 1 22 1 M 22 0 C 34.15026092529297 0 44 9.8497314453125 44 22 C 44 34.15026092529297 34.15026092529297 44 22 44 C 9.8497314453125 44 0 34.15026092529297 0 22 C 0 9.8497314453125 9.8497314453125 0 22 0 Z" stroke="none" fill="#ce8ca1"/>
  </g>
  <path id="telefon_nowy" d="M-1380.524-1069.051a4.008,4.008,0,0,1-1.936-.5l-2.275-1.262a3.992,3.992,0,0,1-1.822-2.136,2.508,2.508,0,0,1-.109-2.668l9.979-17.284a2.459,2.459,0,0,1,.74-.8,3.638,3.638,0,0,1,.445-1.243l.386-.671a3.682,3.682,0,0,1,3.179-1.834,3.664,3.664,0,0,1,1.83.492l2.831,1.634a3.671,3.671,0,0,1,1.343,5.009l-.388.671a3.679,3.679,0,0,1-3.179,1.834,3.669,3.669,0,0,1-1.831-.492l-1.687-.974-6.862,11.886,1.351.749a3.974,3.974,0,0,1,1.907,2.4,3.973,3.973,0,0,1-.346,3.042l-.052.094A4.006,4.006,0,0,1-1380.524-1069.051Zm.178-7.2a.417.417,0,0,0-.407.325,8.107,8.107,0,0,0-.882,2.185,13.107,13.107,0,0,0-.25,2.716.416.416,0,0,0,.053.317.418.418,0,0,0,.262.187.433.433,0,0,0,.094.011.417.417,0,0,0,.408-.325,9.014,9.014,0,0,1,.087-2.717,6.226,6.226,0,0,1,1.045-2.185.42.42,0,0,0-.315-.5A.411.411,0,0,0-1380.346-1076.25Zm9.743-19.279a.426.426,0,0,0-.393.26,8.284,8.284,0,0,0-1.272,2.037,13.4,13.4,0,0,0-.731,2.681.423.423,0,0,0,0,.327.424.424,0,0,0,.229.233.423.423,0,0,0,.167.034.425.425,0,0,0,.392-.26,9.343,9.343,0,0,1,.569-2.711c.039-.092.078-.177.094-.209a7.5,7.5,0,0,1,1.34-1.8.424.424,0,0,0,0-.327.423.423,0,0,0-.229-.233A.424.424,0,0,0-1370.6-1095.529Z" transform="translate(1398.438 1105.246)" fill="#fff"/>
</svg>
